<svg xmlns="http://www.w3.org/2000/svg" xmlns:xlink="http://www.w3.org/1999/xlink" viewBox="0 0 1364.37 522"><defs><style>.cls-1{fill:url(#linear-gradient);}</style><linearGradient id="linear-gradient" x1="1097.4" y1="19.9" x2="74.15" y2="561.69" gradientUnits="userSpaceOnUse"><stop offset="0" stop-color="#87e4dc"/><stop offset="0.15" stop-color="#7ecae2"/><stop offset="0.35" stop-color="#75b1e8"/><stop offset="0.55" stop-color="#6f9eed"/><stop offset="0.76" stop-color="#6b94ef"/><stop offset="1" stop-color="#6a90f0"/></linearGradient></defs><title>bg</title><g id="Layer_2" data-name="Layer 2"><g id="Layer_1-2" data-name="Layer 1"><path class="cls-1" d="M135.46,508.81c9.95,6.22,20.08,13.46,30.72,12.93,9.35-.47,18.14-6.89,26.84-12.51,63.64-41.12,136.5-42.8,200.83-4.64,12.8,7.6,25.76,16.86,39.38,16.07,11.36-.66,22.06-8.28,32.72-14.75,64.95-39.44,138.81-38.26,203.28,3.27,9.13,5.88,18.37,12.64,28.19,12.82,10.35.19,20.13-7,29.77-13.12,64.8-41.45,139-42.28,204.11-2.3,9.76,6,19.55,12.94,30,14,14.29,1.44,28-8.34,41.43-16.28,64.19-37.88,136.83-36.07,200.28,5,8.39,5.43,16.84,11.59,25.84,12.33,11.3.92,22.09-6.77,32.66-13.33a188.33,188.33,0,0,1,102.9-28.78c-8.24-57.21-57.72-217.24-353.37-217.24C651,262.26,683,0,683,0H0V482.61A189,189,0,0,1,135.46,508.81Z"/></g></g></svg>